<mxfile host="app.diagrams.net" agent="Mozilla/5.0 (Windows NT 10.0; Win64; x64) AppleWebKit/537.36 (KHTML, like Gecko) Chrome/136.0.0.0 Safari/537.36" version="27.0.9">
  <diagram name="Architecture" id="zLuWM20UiQaQTMuwx63A">
    <mxGraphModel dx="946" dy="563" grid="1" gridSize="10" guides="1" tooltips="1" connect="1" arrows="1" fold="1" page="1" pageScale="1" pageWidth="850" pageHeight="1100" math="0" shadow="0">
      <root>
        <mxCell id="0" />
        <mxCell id="1" parent="0" />
        <mxCell id="fAKqeo44SJ8jd7h1Ad_r-1" value="API Gateway" style="rounded=1;whiteSpace=wrap;html=1;" vertex="1" parent="1">
          <mxGeometry x="330" y="30" width="120" height="50" as="geometry" />
        </mxCell>
        <mxCell id="fAKqeo44SJ8jd7h1Ad_r-2" value="User Service" style="rounded=1;whiteSpace=wrap;html=1;" vertex="1" parent="1">
          <mxGeometry x="120" y="220" width="120" height="50" as="geometry" />
        </mxCell>
        <mxCell id="fAKqeo44SJ8jd7h1Ad_r-3" value="Task Service" style="rounded=1;whiteSpace=wrap;html=1;" vertex="1" parent="1">
          <mxGeometry x="280" y="220" width="120" height="50" as="geometry" />
        </mxCell>
        <mxCell id="fAKqeo44SJ8jd7h1Ad_r-4" value="Review Service" style="rounded=1;whiteSpace=wrap;html=1;" vertex="1" parent="1">
          <mxGeometry x="440" y="220" width="120" height="50" as="geometry" />
        </mxCell>
        <mxCell id="fAKqeo44SJ8jd7h1Ad_r-5" value="Payment Service" style="rounded=1;whiteSpace=wrap;html=1;" vertex="1" parent="1">
          <mxGeometry x="590" y="220" width="120" height="50" as="geometry" />
        </mxCell>
        <mxCell id="fAKqeo44SJ8jd7h1Ad_r-6" value="Redis" style="rounded=1;whiteSpace=wrap;html=1;" vertex="1" parent="1">
          <mxGeometry x="330" y="110" width="120" height="50" as="geometry" />
        </mxCell>
        <mxCell id="fAKqeo44SJ8jd7h1Ad_r-7" value="Mailer Service" style="rounded=1;whiteSpace=wrap;html=1;" vertex="1" parent="1">
          <mxGeometry x="160" y="460" width="120" height="50" as="geometry" />
        </mxCell>
        <mxCell id="fAKqeo44SJ8jd7h1Ad_r-8" value="Notification Service" style="rounded=1;whiteSpace=wrap;html=1;" vertex="1" parent="1">
          <mxGeometry x="520" y="460" width="150" height="50" as="geometry" />
        </mxCell>
        <mxCell id="fAKqeo44SJ8jd7h1Ad_r-9" value="Shared&#xa;helpers, dtos, constants" style="rounded=1;whiteSpace=wrap;html=1;" vertex="1" parent="1">
          <mxGeometry x="120" y="555" width="600" height="60" as="geometry" />
        </mxCell>
        <mxCell id="fAKqeo44SJ8jd7h1Ad_r-10" value="" style="endArrow=none;html=1;rounded=0;" edge="1" parent="1">
          <mxGeometry width="50" height="50" relative="1" as="geometry">
            <mxPoint x="175" y="191" as="sourcePoint" />
            <mxPoint x="645" y="190" as="targetPoint" />
          </mxGeometry>
        </mxCell>
        <mxCell id="fAKqeo44SJ8jd7h1Ad_r-11" value="" style="endArrow=classic;html=1;rounded=0;" edge="1" parent="1">
          <mxGeometry width="50" height="50" relative="1" as="geometry">
            <mxPoint x="645" y="190" as="sourcePoint" />
            <mxPoint x="645" y="220" as="targetPoint" />
          </mxGeometry>
        </mxCell>
        <mxCell id="fAKqeo44SJ8jd7h1Ad_r-12" value="" style="endArrow=classic;html=1;rounded=0;" edge="1" parent="1">
          <mxGeometry width="50" height="50" relative="1" as="geometry">
            <mxPoint x="176" y="190" as="sourcePoint" />
            <mxPoint x="176" y="220" as="targetPoint" />
          </mxGeometry>
        </mxCell>
        <mxCell id="fAKqeo44SJ8jd7h1Ad_r-13" value="" style="endArrow=classic;html=1;rounded=0;" edge="1" parent="1">
          <mxGeometry width="50" height="50" relative="1" as="geometry">
            <mxPoint x="499.5" y="190" as="sourcePoint" />
            <mxPoint x="499.5" y="220" as="targetPoint" />
          </mxGeometry>
        </mxCell>
        <mxCell id="fAKqeo44SJ8jd7h1Ad_r-14" value="" style="endArrow=classic;html=1;rounded=0;" edge="1" parent="1">
          <mxGeometry width="50" height="50" relative="1" as="geometry">
            <mxPoint x="340" y="190" as="sourcePoint" />
            <mxPoint x="340" y="220" as="targetPoint" />
          </mxGeometry>
        </mxCell>
        <mxCell id="fAKqeo44SJ8jd7h1Ad_r-15" value="Redis" style="rounded=1;whiteSpace=wrap;html=1;" vertex="1" parent="1">
          <mxGeometry x="330" y="350" width="120" height="50" as="geometry" />
        </mxCell>
        <mxCell id="fAKqeo44SJ8jd7h1Ad_r-16" value="" style="endArrow=none;html=1;rounded=0;" edge="1" parent="1">
          <mxGeometry width="50" height="50" relative="1" as="geometry">
            <mxPoint x="170" y="310" as="sourcePoint" />
            <mxPoint x="651" y="310" as="targetPoint" />
          </mxGeometry>
        </mxCell>
        <mxCell id="fAKqeo44SJ8jd7h1Ad_r-17" value="" style="endArrow=classic;html=1;rounded=0;" edge="1" parent="1">
          <mxGeometry width="50" height="50" relative="1" as="geometry">
            <mxPoint x="170.5" y="310" as="sourcePoint" />
            <mxPoint x="170" y="270" as="targetPoint" />
          </mxGeometry>
        </mxCell>
        <mxCell id="fAKqeo44SJ8jd7h1Ad_r-18" value="" style="endArrow=classic;html=1;rounded=0;" edge="1" parent="1">
          <mxGeometry width="50" height="50" relative="1" as="geometry">
            <mxPoint x="340.5" y="310" as="sourcePoint" />
            <mxPoint x="340" y="270" as="targetPoint" />
          </mxGeometry>
        </mxCell>
        <mxCell id="fAKqeo44SJ8jd7h1Ad_r-19" value="" style="endArrow=classic;html=1;rounded=0;" edge="1" parent="1">
          <mxGeometry width="50" height="50" relative="1" as="geometry">
            <mxPoint x="500" y="310" as="sourcePoint" />
            <mxPoint x="499.5" y="270" as="targetPoint" />
          </mxGeometry>
        </mxCell>
        <mxCell id="fAKqeo44SJ8jd7h1Ad_r-20" value="" style="endArrow=classic;html=1;rounded=0;" edge="1" parent="1">
          <mxGeometry width="50" height="50" relative="1" as="geometry">
            <mxPoint x="650" y="310" as="sourcePoint" />
            <mxPoint x="649.5" y="270" as="targetPoint" />
          </mxGeometry>
        </mxCell>
        <mxCell id="fAKqeo44SJ8jd7h1Ad_r-21" value="" style="endArrow=classic;html=1;rounded=0;" edge="1" parent="1">
          <mxGeometry width="50" height="50" relative="1" as="geometry">
            <mxPoint x="389.5" y="80" as="sourcePoint" />
            <mxPoint x="389.5" y="110" as="targetPoint" />
          </mxGeometry>
        </mxCell>
        <mxCell id="fAKqeo44SJ8jd7h1Ad_r-22" value="" style="endArrow=classic;html=1;rounded=0;" edge="1" parent="1">
          <mxGeometry width="50" height="50" relative="1" as="geometry">
            <mxPoint x="389.5" y="160" as="sourcePoint" />
            <mxPoint x="389.5" y="190" as="targetPoint" />
          </mxGeometry>
        </mxCell>
        <mxCell id="fAKqeo44SJ8jd7h1Ad_r-23" value="" style="endArrow=classic;html=1;rounded=0;" edge="1" parent="1">
          <mxGeometry width="50" height="50" relative="1" as="geometry">
            <mxPoint x="390" y="350" as="sourcePoint" />
            <mxPoint x="389.5" y="310" as="targetPoint" />
          </mxGeometry>
        </mxCell>
        <mxCell id="fAKqeo44SJ8jd7h1Ad_r-24" value="" style="endArrow=classic;html=1;rounded=0;" edge="1" parent="1">
          <mxGeometry width="50" height="50" relative="1" as="geometry">
            <mxPoint x="389.5" y="400" as="sourcePoint" />
            <mxPoint x="389.5" y="430" as="targetPoint" />
          </mxGeometry>
        </mxCell>
        <mxCell id="fAKqeo44SJ8jd7h1Ad_r-25" value="" style="endArrow=none;html=1;rounded=0;" edge="1" parent="1">
          <mxGeometry width="50" height="50" relative="1" as="geometry">
            <mxPoint x="219" y="431" as="sourcePoint" />
            <mxPoint x="590" y="430" as="targetPoint" />
          </mxGeometry>
        </mxCell>
        <mxCell id="fAKqeo44SJ8jd7h1Ad_r-26" value="" style="endArrow=classic;html=1;rounded=0;" edge="1" parent="1">
          <mxGeometry width="50" height="50" relative="1" as="geometry">
            <mxPoint x="590" y="430" as="sourcePoint" />
            <mxPoint x="590" y="460" as="targetPoint" />
          </mxGeometry>
        </mxCell>
        <mxCell id="fAKqeo44SJ8jd7h1Ad_r-27" value="" style="endArrow=classic;html=1;rounded=0;" edge="1" parent="1">
          <mxGeometry width="50" height="50" relative="1" as="geometry">
            <mxPoint x="220" y="430" as="sourcePoint" />
            <mxPoint x="220" y="460" as="targetPoint" />
          </mxGeometry>
        </mxCell>
        <mxCell id="fAKqeo44SJ8jd7h1Ad_r-28" value="Database" style="rounded=1;whiteSpace=wrap;html=1;" vertex="1" parent="1">
          <mxGeometry x="590" y="350" width="120" height="50" as="geometry" />
        </mxCell>
        <mxCell id="fAKqeo44SJ8jd7h1Ad_r-31" value="" style="endArrow=classic;html=1;rounded=0;entryX=0.75;entryY=1;entryDx=0;entryDy=0;" edge="1" parent="1">
          <mxGeometry width="50" height="50" relative="1" as="geometry">
            <mxPoint x="649.5" y="460" as="sourcePoint" />
            <mxPoint x="649.5" y="400" as="targetPoint" />
          </mxGeometry>
        </mxCell>
        <mxCell id="fAKqeo44SJ8jd7h1Ad_r-32" value="" style="endArrow=classic;html=1;rounded=0;" edge="1" parent="1">
          <mxGeometry width="50" height="50" relative="1" as="geometry">
            <mxPoint x="520" y="310" as="sourcePoint" />
            <mxPoint x="589" y="378" as="targetPoint" />
            <Array as="points">
              <mxPoint x="520" y="378" />
            </Array>
          </mxGeometry>
        </mxCell>
      </root>
    </mxGraphModel>
  </diagram>
</mxfile>
